<?xml version="1.0" encoding="utf-8"?>
<!--Designed by Vexels.com - 2017 All Rights Reserved - https://vexels.com/terms-and-conditions/-->
<!DOCTYPE svg PUBLIC "-//W3C//DTD SVG 1.1//EN" "http://www.w3.org/Graphics/SVG/1.1/DTD/svg11.dtd">
<svg version="1.1" id="Capa_1" xmlns="http://www.w3.org/2000/svg" xmlns:xlink="http://www.w3.org/1999/xlink" x="0px" y="0px"
	 width="1200px" height="1200px" viewBox="0 0 1200 1200" enable-background="new 0 0 1200 1200" xml:space="preserve">
<g>
	<g>
		<path fill="#59544C" d="M741.57,473.038H458.43c-2.191,269.317-97.655,446.536-119.959,484.263h523.054
			C839.225,919.574,743.762,742.355,741.57,473.038z"/>
		<path fill="#59544C" d="M781.291,388.954H418.705c9.734,10.178,26.347,29.59,33.827,50.242h294.933
			C754.945,418.544,771.557,399.132,781.291,388.954z"/>
		<path fill="#59544C" d="M743.98,286.197H456.02c-2.737,25.118-24.33,51.157-36.524,64.032H780.5
			C768.311,337.354,746.717,311.315,743.98,286.197z"/>
		<path fill="#59544C" d="M769.348,55.581h-55.496v57.739c0,13.767-11.162,24.927-24.926,24.927
			c-13.762,0-24.924-11.16-24.924-24.927V55.581H531.617v57.739c0,13.767-11.161,24.927-24.925,24.927s-24.92-11.16-24.92-24.927
			V55.581h-55.501v196.783h343.077V55.581z"/>
		<path fill="#59544C" d="M909.219,1048.828c0-22.329-11.773-41.863-29.414-52.887c-0.236,0.015-0.461,0.076-0.697,0.076H320.898
			c-0.242,0-0.461-0.062-0.702-0.076c-17.641,11.023-29.414,30.558-29.414,52.887c0,25.354,15.149,47.12,36.873,56.879h544.697
			C894.064,1095.948,909.219,1074.182,909.219,1048.828z"/>
		<path fill="#59544C" d="M879.107,1105.707h-6.756H327.654h-6.756c-10.692,0-19.362,8.67-19.362,19.358s8.67,19.358,19.362,19.358
			h558.209c10.691,0,19.354-8.67,19.354-19.358S889.799,1105.707,879.107,1105.707z"/>
		<path fill="#59544C" d="M879.107,996.018c0.236,0,0.461-0.062,0.697-0.076c10.361-0.366,18.656-8.83,18.656-19.282
			c0-10.688-8.662-19.358-19.354-19.358h-17.582H338.471h-17.573c-10.692,0-19.362,8.67-19.362,19.358
			c0,10.452,8.295,18.909,18.66,19.282c0.241,0.015,0.46,0.076,0.702,0.076H879.107z"/>
		<path fill="#59544C" d="M758.947,473.038c9.342,0,16.912-7.58,16.912-16.928c0-9.341-7.57-16.914-16.912-16.914h-11.482H452.532
			h-11.474c-9.35,0-16.916,7.573-16.916,16.914c0,9.348,7.566,16.928,16.916,16.928h17.372h283.14H758.947z"/>
		<path fill="#59544C" d="M800.068,388.954c10.699,0,19.361-8.67,19.361-19.366c0-10.681-8.662-19.358-19.361-19.358H780.5H419.496
			h-19.572c-10.687,0-19.353,8.678-19.353,19.358c0,10.696,8.666,19.366,19.353,19.366h18.781h362.586H800.068z"/>
		<path fill="#59544C" d="M786.381,286.197c9.346,0,16.916-7.573,16.916-16.913s-7.57-16.92-16.916-16.92h-17.033H426.271h-12.655
			c-9.346,0-16.911,7.58-16.911,16.92s7.565,16.913,16.911,16.913h42.404h287.96H786.381z"/>
	</g>
	<path fill="#78736C" d="M599.982,55.581h-68.366v57.739c0,13.774-11.161,24.935-24.925,24.935s-24.92-11.16-24.92-24.935V55.581
		h-55.501v196.791h-12.655c-9.346,0-16.911,7.572-16.911,16.912s7.565,16.913,16.911,16.913h42.404
		c-2.737,25.125-24.33,51.157-36.524,64.032h-19.572c-10.687,0-19.353,8.678-19.353,19.365c0,10.697,8.666,19.359,19.353,19.359
		h18.781c9.734,10.178,26.347,29.598,33.827,50.242h-11.474c-9.35,0-16.916,7.581-16.916,16.914c0,9.355,7.566,16.928,16.916,16.928
		h17.372c-2.191,269.317-97.655,446.536-119.959,484.271h-17.573c-10.692,0-19.362,8.662-19.362,19.351
		c0,10.452,8.295,18.916,18.66,19.289c-17.641,11.024-29.414,30.551-29.414,52.88c0,25.361,15.149,47.12,36.873,56.886h-6.756
		c-10.692,0-19.362,8.663-19.362,19.352c0,10.696,8.67,19.358,19.362,19.358h279.084V55.581"/>
	<g>
		<path fill="#26231F" d="M861.525,962.877H338.471c-2.003,0-3.854-1.074-4.843-2.811c-0.997-1.745-0.979-3.878,0.04-5.607
			c19.519-33.01,116.99-211.38,119.181-481.467c0.027-3.063,2.518-5.53,5.581-5.53h283.14c3.063,0,5.555,2.468,5.58,5.53
			c2.195,270.071,99.664,448.448,119.178,481.467c1.02,1.729,1.037,3.87,0.039,5.607
			C865.379,961.803,863.529,962.877,861.525,962.877z M348.107,951.725h503.778c-27.219-48.667-112.568-221.018-115.832-473.11
			h-272.1C460.688,730.729,375.334,903.058,348.107,951.725z"/>
		<path fill="#26231F" d="M747.465,444.773H452.532c-2.352,0-4.444-1.47-5.245-3.679c-7.199-19.869-23.524-38.778-32.611-48.286
			c-1.547-1.614-1.977-3.991-1.1-6.049c0.876-2.05,2.893-3.383,5.129-3.383h362.586c2.232,0,4.248,1.333,5.129,3.383
			c0.877,2.058,0.447,4.435-1.096,6.049c-9.094,9.508-25.42,28.425-32.615,48.286C751.908,443.304,749.816,444.773,747.465,444.773z
			 M456.351,433.62h287.293c6.172-14.939,16.451-28.919,25.104-39.09H431.252C439.904,404.701,450.18,418.673,456.351,433.62z"/>
		<path fill="#26231F" d="M780.5,355.806H419.496c-2.227,0-4.244-1.325-5.12-3.375c-0.885-2.041-0.465-4.418,1.073-6.041
			c9.65-10.186,32.378-36.508,35.026-60.799c0.309-2.83,2.701-4.975,5.545-4.975h287.96c2.844,0,5.236,2.145,5.545,4.975
			c2.553,23.4,23.037,48.137,35.025,60.807c1.529,1.615,1.955,3.992,1.07,6.041C784.744,354.48,782.727,355.806,780.5,355.806z
			 M431.967,344.653h336.062c-11.479-13.622-24.982-33.095-28.838-52.876H460.809C456.95,311.566,443.45,331.039,431.967,344.653z"
			/>
		<path fill="#26231F" d="M769.348,257.944H426.271c-3.081,0-5.581-2.499-5.581-5.58V55.581c0-3.082,2.5-5.581,5.581-5.581h55.501
			c3.081,0,5.58,2.499,5.58,5.581v57.739c0,10.67,8.675,19.347,19.34,19.347c10.669,0,19.344-8.677,19.344-19.347V55.581
			c0-3.082,2.5-5.581,5.581-5.581h132.385c3.08,0,5.58,2.499,5.58,5.581v57.739c0,10.67,8.676,19.347,19.344,19.347
			c10.67,0,19.346-8.677,19.346-19.347V55.581c0-3.082,2.498-5.581,5.58-5.581h55.496c3.082,0,5.58,2.499,5.58,5.581v196.783
			C774.928,255.445,772.43,257.944,769.348,257.944z M431.851,246.783h331.917V61.161h-44.336v52.159
			c0,16.821-13.684,30.508-30.506,30.508c-16.816,0-30.504-13.687-30.504-30.508V61.161H537.197v52.159
			c0,16.821-13.688,30.508-30.505,30.508s-30.501-13.687-30.501-30.508V61.161h-44.34V246.783z"/>
		<path fill="#26231F" d="M872.352,1111.283H327.654c-0.787,0-1.565-0.167-2.285-0.487c-24.401-10.963-40.168-35.288-40.168-61.968
			c0-23.541,11.976-45.086,32.039-57.618c0.988-0.617,2.142-0.929,3.309-0.838c0.161,0.008,0.626,0.068,0.783,0.092l557.776-0.023
			c1.193-0.114,2.666,0.152,3.654,0.77c20.063,12.532,32.037,34.077,32.037,57.618c0,26.68-15.766,51.005-40.162,61.968
			C873.92,1111.116,873.139,1111.283,872.352,1111.283z M328.879,1100.13h542.242c19.795-9.386,32.518-29.399,32.518-51.302
			c0-19.1-9.449-36.637-25.359-47.234H321.72c-15.914,10.598-25.358,28.135-25.358,47.234
			C296.362,1070.738,309.083,1090.744,328.879,1100.13z"/>
		<path fill="#26231F" d="M879.107,1150H320.898c-13.755,0-24.943-11.184-24.943-24.935c0-13.752,11.188-24.936,24.943-24.936
			h558.209c13.746,0,24.934,11.184,24.934,24.936C904.041,1138.816,892.854,1150,879.107,1150z M320.898,1111.283
			c-7.602,0-13.782,6.187-13.782,13.782c0,7.595,6.18,13.781,13.782,13.781h558.209c7.594,0,13.773-6.187,13.773-13.781
			c0-7.596-6.18-13.782-13.773-13.782H320.898z"/>
		<path fill="#26231F" d="M879.107,1001.594H320.898c-0.277,0-0.957-0.061-1.23-0.099c-13.156-0.465-23.713-11.382-23.713-24.836
			c0-13.752,11.188-24.935,24.943-24.935h558.209c13.746,0,24.934,11.183,24.934,24.935c0,13.461-10.557,24.379-24.039,24.858
			C879.725,1001.556,879.385,1001.594,879.107,1001.594z M320.898,962.877c-7.602,0-13.782,6.187-13.782,13.782
			c0,7.42,5.831,13.439,13.281,13.706c0.21,0.007,0.725,0.067,0.935,0.099l557.526-0.023c0.209-0.03,0.492-0.061,0.59-0.068
			c7.605-0.267,13.434-6.293,13.434-13.713c0-7.596-6.18-13.782-13.773-13.782H320.898z"/>
		<path fill="#26231F" d="M758.947,478.614H441.058c-12.404,0-22.497-10.094-22.497-22.504c0-12.403,10.092-22.49,22.497-22.49
			h317.889c12.4,0,22.492,10.087,22.492,22.49C781.439,468.521,771.348,478.614,758.947,478.614z M441.058,444.773
			c-6.251,0-11.335,5.089-11.335,11.337c0,6.254,5.084,11.352,11.335,11.352h317.889c6.252,0,11.33-5.098,11.33-11.352
			c0-6.248-5.078-11.337-11.33-11.337H441.058z"/>
		<path fill="#26231F" d="M800.068,394.53H399.924c-13.746,0-24.933-11.191-24.933-24.942s11.188-24.935,24.933-24.935h400.145
			c13.754,0,24.941,11.184,24.941,24.935S813.822,394.53,800.068,394.53z M399.924,355.806c-7.592,0-13.772,6.187-13.772,13.782
			c0,7.603,6.18,13.789,13.772,13.789h400.145c7.602,0,13.781-6.187,13.781-13.789c0-7.596-6.18-13.782-13.781-13.782H399.924z"/>
		<path fill="#26231F" d="M786.381,291.777H413.616c-12.404,0-22.492-10.091-22.492-22.493c0-12.406,10.088-22.501,22.492-22.501
			h372.765c12.404,0,22.496,10.095,22.496,22.501C808.877,281.687,798.785,291.777,786.381,291.777z M413.616,257.944
			c-6.251,0-11.331,5.085-11.331,11.34c0,6.251,5.08,11.332,11.331,11.332h372.765c6.25,0,11.334-5.081,11.334-11.332
			c0-6.255-5.084-11.34-11.334-11.34H413.616z"/>
	</g>
</g>
</svg>
